<?xml version="1.0" encoding="UTF-8" standalone="no"?>
<svg width="637px" height="39px" viewBox="0 0 637 39" version="1.1" xmlns="http://www.w3.org/2000/svg" xmlns:xlink="http://www.w3.org/1999/xlink">
    <!-- Generator: Sketch 39.1 (31720) - http://www.bohemiancoding.com/sketch -->
    <title>ABS Logo Horizontal</title>
    <desc>Created with Sketch.</desc>
    <defs></defs>
    <g id="Symbols" stroke="none" stroke-width="1" fill="none" fill-rule="evenodd">
        <g id="ABS-Logo-Horizontal">
            <path d="M632.031,7.044 L624.868,18.259 L617.777,7.044 L612.53,7.044 L622.59,22.384 L622.59,32.369 L627.075,32.369 L627.075,22.275 L637.133,7.044 L632.031,7.044 L632.031,7.044 Z M587.715,11.168 L595.747,11.168 L595.747,32.369 L600.232,32.369 L600.232,11.168 L608.264,11.168 L608.264,7.044 L587.715,7.044 L587.715,11.168 L587.715,11.168 Z M567.565,21.587 L580.265,21.587 L580.265,17.608 L567.565,17.608 L567.565,11.023 L581.895,11.023 L581.895,7.044 L563.116,7.044 L563.116,32.369 L582.073,32.369 L582.073,28.39 L567.565,28.39 L567.565,21.587 L567.565,21.587 Z M549.732,32.369 L554.182,32.369 L554.182,7.044 L549.732,7.044 L549.732,32.369 Z M532.515,28.715 C527.664,28.715 524.156,24.663 524.156,19.67 C524.156,14.677 527.664,10.698 532.515,10.698 C535.407,10.698 537.579,11.964 539.605,13.845 L542.465,10.552 C540.038,8.237 537.218,6.609 532.55,6.609 C524.88,6.609 519.488,12.507 519.488,19.742 C519.488,27.05 524.989,32.803 532.368,32.803 C537.108,32.803 540.003,31.067 542.644,28.317 L539.786,25.423 C537.614,27.448 535.626,28.715 532.515,28.715 L532.515,28.715 Z M499.848,28.715 C494.817,28.715 491.237,24.626 491.237,19.67 C491.237,14.714 494.745,10.698 499.774,10.698 C504.804,10.698 508.387,14.786 508.387,19.742 C508.387,24.698 504.877,28.715 499.848,28.715 L499.848,28.715 Z M499.848,6.609 C492.069,6.609 486.569,12.579 486.569,19.742 C486.569,26.905 491.997,32.803 499.774,32.803 C507.554,32.803 513.053,26.833 513.053,19.67 C513.053,12.507 507.627,6.609 499.848,6.609 L499.848,6.609 Z M472.137,17.68 C467.289,16.522 466.131,15.654 466.131,13.665 C466.131,11.964 467.65,10.626 470.256,10.626 C472.57,10.626 474.85,11.53 477.13,13.229 L479.518,9.865 C476.949,7.803 474.019,6.681 470.328,6.681 C465.298,6.681 461.681,9.648 461.681,14.062 C461.681,18.766 464.721,20.357 470.11,21.659 C474.814,22.745 475.827,23.722 475.827,25.568 C475.827,27.521 474.09,28.787 471.342,28.787 C468.193,28.787 465.77,27.593 463.346,25.495 L460.667,28.679 C463.707,31.392 467.361,32.731 471.232,32.731 C476.551,32.731 480.277,29.909 480.277,25.133 C480.277,20.9 477.492,18.982 472.137,17.68 L472.137,17.68 Z M427.389,21.587 L440.087,21.587 L440.087,17.608 L427.389,17.608 L427.389,11.023 L441.715,11.023 L441.715,7.044 L422.937,7.044 L422.937,32.369 L441.896,32.369 L441.896,28.39 L427.389,28.39 L427.389,21.587 L427.389,21.587 Z M402.824,7.044 L398.375,7.044 L398.375,32.369 L416.14,32.369 L416.14,28.317 L402.824,28.317 L402.824,7.044 L402.824,7.044 Z M381.845,28.425 L374.464,28.425 L374.464,21.48 L381.519,21.48 C385.028,21.48 386.729,22.745 386.729,24.916 C386.729,27.232 384.885,28.425 381.845,28.425 L381.845,28.425 Z M374.464,10.987 L380.868,10.987 C383.726,10.987 385.317,12.18 385.317,14.243 C385.317,16.594 383.399,17.716 380.542,17.716 L374.464,17.716 L374.464,10.987 L374.464,10.987 Z M386.15,19.2 C388.03,18.222 389.77,16.631 389.77,13.519 C389.77,9.54 386.549,7.044 381.446,7.044 L370.087,7.044 L370.087,32.369 L381.808,32.369 C387.453,32.369 391.179,29.944 391.179,25.386 C391.179,21.913 389.117,20.213 386.15,19.2 L386.15,19.2 Z M356.704,32.369 L361.153,32.369 L361.153,7.044 L356.704,7.044 L356.704,32.369 Z M339.917,28.425 L332.538,28.425 L332.538,21.48 L339.593,21.48 C343.104,21.48 344.803,22.745 344.803,24.916 C344.803,27.232 342.956,28.425 339.917,28.425 L339.917,28.425 Z M332.538,10.987 L338.94,10.987 C341.801,10.987 343.392,12.18 343.392,14.243 C343.392,16.594 341.474,17.716 338.616,17.716 L332.538,17.716 L332.538,10.987 L332.538,10.987 Z M344.224,19.2 C346.105,18.222 347.841,16.631 347.841,13.519 C347.841,9.54 344.622,7.044 339.521,7.044 L328.159,7.044 L328.159,32.369 L339.882,32.369 C345.526,32.369 349.253,29.944 349.253,25.386 C349.253,21.913 347.19,20.213 344.224,19.2 L344.224,19.2 Z M302.081,24.554 L288.515,7.044 L284.39,7.044 L284.39,32.369 L288.767,32.369 L288.767,14.352 L302.731,32.369 L306.458,32.369 L306.458,7.044 L302.081,7.044 L302.081,24.554 L302.081,24.554 Z M260.261,22.312 L264.602,12.18 L268.979,22.312 L260.261,22.312 L260.261,22.312 Z M262.612,6.862 L251.468,32.369 L256.026,32.369 L258.633,26.255 L270.607,26.255 L273.178,32.369 L277.881,32.369 L266.736,6.862 L262.612,6.862 L262.612,6.862 Z M236.676,28.715 C231.826,28.715 228.318,24.663 228.318,19.67 C228.318,14.677 231.826,10.698 236.676,10.698 C239.569,10.698 241.74,11.964 243.766,13.845 L246.626,10.552 C244.199,8.237 241.379,6.609 236.711,6.609 C229.041,6.609 223.65,12.507 223.65,19.742 C223.65,27.05 229.15,32.803 236.529,32.803 C241.27,32.803 244.165,31.067 246.805,28.317 L243.947,25.423 C241.776,27.448 239.787,28.715 236.676,28.715 L236.676,28.715 Z M211.388,32.369 L215.837,32.369 L215.837,7.044 L211.388,7.044 L211.388,32.369 Z M187.259,19.598 L187.259,11.095 L193.736,11.095 C197.029,11.095 198.982,12.543 198.982,15.329 C198.982,17.933 196.957,19.598 193.771,19.598 L187.259,19.598 L187.259,19.598 Z M203.504,15.075 C203.504,10.118 199.922,7.044 194.098,7.044 L182.811,7.044 L182.811,32.369 L187.259,32.369 L187.259,23.541 L192.832,23.541 L199.055,32.369 L204.301,32.369 L197.463,22.781 C201.008,21.805 203.504,19.273 203.504,15.075 L203.504,15.075 Z M160.852,21.587 L173.55,21.587 L173.55,17.608 L160.852,17.608 L160.852,11.023 L175.179,11.023 L175.179,7.044 L156.4,7.044 L156.4,32.369 L175.36,32.369 L175.36,28.39 L160.852,28.39 L160.852,21.587 L160.852,21.587 Z M135.276,19.019 L127.569,7.044 L122.83,7.044 L122.83,32.369 L127.208,32.369 L127.208,14.279 L135.132,26.146 L135.276,26.146 L143.272,14.207 L143.272,32.369 L147.722,32.369 L147.722,7.044 L142.981,7.044 L135.276,19.019 L135.276,19.019 Z M98.702,22.312 L103.044,12.18 L107.422,22.312 L98.702,22.312 L98.702,22.312 Z M101.054,6.862 L89.911,32.369 L94.47,32.369 L97.075,26.255 L109.051,26.255 L111.618,32.369 L116.322,32.369 L105.179,6.862 L101.054,6.862 L101.054,6.862 Z" id="Fill-6" fill="#002C47"></path>
            <path d="M34.333,5.175 L35.504,24.98 L41.033,1.318 C38.766,2.058 36.417,3.269 34.333,5.175 L34.333,5.175 Z M41.087,1.3 L37.665,25.399 L48.439,0.291 C46.562,0.226 43.747,0.441 41.087,1.3 L41.087,1.3 Z M64.981,3.888 C62.514,3.423 60.214,2.822 58.518,2.335 L41.702,27.409 L65.483,8.158 L64.981,3.888 L64.981,3.888 Z M65.492,8.234 L43.344,28.946 L66.666,18.24 L65.492,8.234 L65.492,8.234 Z M66.678,18.334 L44.665,30.764 C49.859,30.109 54.574,31.549 55.681,31.896 L55.681,31.893 C55.681,31.893 55.728,31.91 55.816,31.939 C55.881,31.961 55.921,31.974 55.932,31.978 C57.191,32.397 63.018,34.263 68.618,34.879 L66.678,18.334 L66.678,18.334 Z M55.932,1.539 C55.921,1.534 55.881,1.521 55.816,1.501 C55.728,1.47 55.681,1.455 55.681,1.455 L55.681,1.457 C54.871,1.203 51.911,0.421 48.504,0.291 L39.803,26.208 L58.455,2.316 C57.24,1.965 56.345,1.675 55.932,1.539 L55.932,1.539 Z M12.936,1.457 L12.936,1.455 C12.936,1.455 12.889,1.47 12.802,1.501 C12.737,1.521 12.698,1.534 12.685,1.539 C12.274,1.675 11.38,1.965 10.164,2.316 L28.816,26.208 L20.114,0.291 C16.706,0.421 13.748,1.203 12.936,1.457 L12.936,1.457 Z M20.18,0.291 L30.952,25.399 L27.531,1.3 C24.87,0.441 22.057,0.226 20.18,0.291 L20.18,0.291 Z M0,34.879 C5.6,34.263 11.426,32.397 12.685,31.978 C12.698,31.974 12.737,31.961 12.802,31.939 C12.889,31.91 12.936,31.893 12.936,31.893 L12.936,31.896 C14.042,31.549 18.759,30.109 23.952,30.764 L1.941,18.334 L0,34.879 L0,34.879 Z M3.637,3.888 L3.136,8.158 L26.915,27.409 L10.101,2.335 C8.404,2.822 6.105,3.423 3.637,3.888 L3.637,3.888 Z M33.114,24.98 L34.286,5.175 C32.2,3.269 29.851,2.058 27.585,1.318 L33.114,24.98 L33.114,24.98 Z M1.953,18.24 L25.274,28.946 L3.125,8.234 L1.953,18.24 L1.953,18.24 Z" id="Fill-8" fill="#002C47"></path>
            <path d="M53.219,35.736 C53.171,35.754 53.102,35.763 53.006,35.763 L52.807,35.763 L52.807,35.317 L52.996,35.317 C53.119,35.317 53.208,35.332 53.265,35.362 C53.32,35.393 53.349,35.453 53.349,35.543 C53.349,35.637 53.305,35.701 53.219,35.736 L53.219,35.736 Z M53.563,35.522 C53.563,35.364 53.498,35.258 53.369,35.205 C53.296,35.174 53.181,35.16 53.026,35.16 L52.588,35.16 L52.588,36.407 L52.807,36.407 L52.807,35.92 L52.982,35.92 C53.099,35.92 53.182,35.933 53.229,35.96 C53.309,36.006 53.349,36.101 53.349,36.243 L53.349,36.342 L53.353,36.381 C53.354,36.386 53.354,36.391 53.355,36.395 L53.358,36.407 L53.563,36.407 L53.557,36.392 C53.551,36.381 53.547,36.36 53.545,36.328 C53.543,36.294 53.541,36.263 53.541,36.234 L53.541,36.144 C53.541,36.081 53.521,36.017 53.475,35.951 C53.429,35.885 53.357,35.845 53.26,35.829 C53.336,35.818 53.398,35.797 53.44,35.769 C53.522,35.715 53.563,35.634 53.563,35.522 L53.563,35.522 Z M53.739,36.484 C53.55,36.675 53.318,36.771 53.045,36.771 C52.773,36.771 52.543,36.675 52.352,36.484 C52.161,36.291 52.067,36.06 52.067,35.787 C52.067,35.518 52.162,35.286 52.353,35.096 C52.545,34.904 52.774,34.808 53.045,34.808 C53.315,34.808 53.549,34.904 53.739,35.096 C53.93,35.286 54.026,35.518 54.026,35.787 C54.026,36.06 53.93,36.291 53.739,36.484 L53.739,36.484 Z M53.853,34.984 C53.631,34.762 53.361,34.652 53.045,34.652 C52.732,34.652 52.465,34.762 52.244,34.984 C52.022,35.205 51.911,35.472 51.911,35.786 C51.911,36.102 52.02,36.371 52.24,36.593 C52.463,36.816 52.73,36.928 53.045,36.928 C53.361,36.928 53.631,36.816 53.853,36.593 C54.075,36.37 54.188,36.102 54.188,35.786 C54.188,35.471 54.075,35.204 53.853,34.984 L53.853,34.984 Z M34.315,36.881 L30.51,34.72 L17.24,34.72 L17.24,39.043 L51.435,39.043 L51.435,34.72 L38.12,34.72 L34.315,36.881 L34.315,36.881 Z" id="Fill-10" fill="#D1393F"></path>
        </g>
    </g>
</svg>